<?xml version="1.0" encoding="UTF-8" standalone="no"?>
<!DOCTYPE svg PUBLIC "-//W3C//DTD SVG 1.1//EN" "http://www.w3.org/Graphics/SVG/1.1/DTD/svg11.dtd">
<!-- Generated by graphviz version 2.40.1 (20161225.0304)
 -->
<!-- Title: LR Pages: 1 -->
<svg width="288pt" height="83pt" viewBox="0.00 0.00 288.17 83.08" xmlns="http://www.w3.org/2000/svg" xmlns:xlink="http://www.w3.org/1999/xlink">
<g id="graph0" class="graph" transform="scale(1 1) rotate(0) translate(4 79.0808)">
<title>LR</title>
<polygon fill="#ffffff" stroke="transparent" points="-4,4 -4,-79.0808 284.1657,-79.0808 284.1657,4 -4,4"/>
<!-- start -->
<g id="node1" class="node">
<title>start</title>
<polygon fill="none" stroke="#000000" points="39.1185,-40.2808 -.1188,-22.2808 39.1185,-4.2808 78.3558,-22.2808 39.1185,-40.2808"/>
<polyline fill="none" stroke="#000000" points="10.7882,-27.2844 10.7882,-17.2773 "/>
<polyline fill="none" stroke="#000000" points="28.2114,-9.2844 50.0255,-9.2844 "/>
<polyline fill="none" stroke="#000000" points="67.4487,-17.2773 67.4487,-27.2844 "/>
<polyline fill="none" stroke="#000000" points="50.0255,-35.2773 28.2114,-35.2773 "/>
<text text-anchor="middle" x="39.1185" y="-18.0808" font-family="Times,serif" font-size="14.00" fill="#000000">start</text>
</g>
<!-- loop -->
<g id="node2" class="node">
<title>loop</title>
<ellipse fill="none" stroke="#000000" cx="158.7637" cy="-22.2808" rx="28.4127" ry="18"/>
<text text-anchor="middle" x="158.7637" y="-18.0808" font-family="Times,serif" font-size="14.00" fill="#000000">loop</text>
</g>
<!-- start&#45;&gt;loop -->
<g id="edge1" class="edge">
<title>start-&gt;loop</title>
<path fill="none" stroke="#000000" d="M78.2948,-22.2808C91.7388,-22.2808 106.7684,-22.2808 120.1661,-22.2808"/>
<polygon fill="#000000" stroke="#000000" points="120.4995,-25.7809 130.4995,-22.2808 120.4994,-18.7809 120.4995,-25.7809"/>
<text text-anchor="middle" x="104.3975" y="-26.4808" font-family="Times,serif" font-size="14.00" fill="#000000">'#'</text>
</g>
<!-- loop&#45;&gt;loop -->
<g id="edge2" class="edge">
<title>loop-&gt;loop</title>
<path fill="none" stroke="#000000" d="M149.1949,-39.3181C147.2421,-49.1388 150.4317,-58.2808 158.7637,-58.2808 163.9713,-58.2808 167.17,-54.7097 168.36,-49.6338"/>
<polygon fill="#000000" stroke="#000000" points="171.8593,-49.3088 168.3326,-39.3181 164.8593,-49.3275 171.8593,-49.3088"/>
<text text-anchor="middle" x="158.7637" y="-62.4808" font-family="Times,serif" font-size="14.00" fill="#000000">'*'</text>
</g>
<!-- end -->
<g id="node3" class="node">
<title>end</title>
<polygon fill="none" stroke="#000000" points="280.2737,-40.4961 243.8432,-40.4961 243.8432,-4.0656 280.2737,-4.0656 280.2737,-40.4961"/>
<polyline fill="none" stroke="#000000" points="255.8432,-40.4961 243.8432,-28.4961 "/>
<polyline fill="none" stroke="#000000" points="243.8432,-16.0656 255.8432,-4.0656 "/>
<polyline fill="none" stroke="#000000" points="268.2737,-4.0656 280.2737,-16.0656 "/>
<polyline fill="none" stroke="#000000" points="280.2737,-28.4961 268.2737,-40.4961 "/>
<text text-anchor="middle" x="262.0584" y="-18.0808" font-family="Times,serif" font-size="14.00" fill="#000000">end</text>
</g>
<!-- loop&#45;&gt;end -->
<g id="edge3" class="edge">
<title>loop-&gt;end</title>
<path fill="none" stroke="#000000" d="M186.9895,-22.2808C201.46,-22.2808 219.0425,-22.2808 233.5528,-22.2808"/>
<polygon fill="#000000" stroke="#000000" points="233.9477,-25.7809 243.9477,-22.2808 233.9476,-18.7809 233.9477,-25.7809"/>
<text text-anchor="middle" x="215.4602" y="-26.4808" font-family="Times,serif" font-size="14.00" fill="#000000">'$'</text>
</g>
<!-- loop&#45;&gt;end -->
<g id="edge4" class="edge">
<title>loop-&gt;end</title>
<path fill="none" stroke="#000000" d="M179.2274,-9.7314C192.4768,-3.1507 210.1443,2.7464 225.9511,-1.4808 228.9301,-2.2775 231.918,-3.3855 234.8294,-4.6791"/>
<polygon fill="#000000" stroke="#000000" points="233.2719,-7.8139 243.7635,-9.2895 236.482,-1.5933 233.2719,-7.8139"/>
<text text-anchor="middle" x="215.4602" y="-5.4808" font-family="Times,serif" font-size="14.00" fill="#000000">'€'</text>
</g>
</g>
</svg>